HIERARCHY
ROOT Hips
{
	OFFSET 0.00000 0.00000 0.00000
	CHANNELS 6 Xposition Yposition Zposition Zrotation Yrotation Xrotation 
	JOINT LHipJoint
	{
		OFFSET 0 0 0
		CHANNELS 3 Zrotation Yrotation Xrotation
		JOINT LeftUpLeg
		{
			OFFSET 1.30186 -1.90722 0.65024
			CHANNELS 3 Zrotation Yrotation Xrotation
			JOINT LeftLeg
			{
				OFFSET 2.56413 -7.04489 0.00000
				CHANNELS 3 Zrotation Yrotation Xrotation
				JOINT LeftFoot
				{
					OFFSET 2.79321 -7.67428 0.00000
					CHANNELS 3 Zrotation Yrotation Xrotation
					JOINT LeftToeBase
					{
						OFFSET 0.15723 -0.43198 2.08537
						CHANNELS 3 Zrotation Yrotation Xrotation
						End Site
						{
							OFFSET 0.00000 -0.00000 1.07411
						}
					}
				}
			}
		}
	}
	JOINT RHipJoint
	{
		OFFSET 0 0 0
		CHANNELS 3 Zrotation Yrotation Xrotation
		JOINT RightUpLeg
		{
			OFFSET -1.28627 -1.90723 0.65024
			CHANNELS 3 Zrotation Yrotation Xrotation
			JOINT RightLeg
			{
				OFFSET -2.56567 -7.04913 0.00000
				CHANNELS 3 Zrotation Yrotation Xrotation
				JOINT RightFoot
				{
					OFFSET -2.75597 -7.57198 0.00000
					CHANNELS 3 Zrotation Yrotation Xrotation
					JOINT RightToeBase
					{
						OFFSET -0.17500 -0.48081 2.22901
						CHANNELS 3 Zrotation Yrotation Xrotation
						End Site
						{
							OFFSET -0.00000 -0.00000 1.14762
						}
					}
				}
			}
		}
	}
	JOINT LowerBack
	{
		OFFSET 0 0 0
		CHANNELS 3 Zrotation Yrotation Xrotation
		JOINT Spine
		{
			OFFSET -0.04522 2.07467 -0.16566
			CHANNELS 3 Zrotation Yrotation Xrotation
			JOINT Spine1
			{
				OFFSET -0.01178 2.08825 -0.05393
				CHANNELS 3 Zrotation Yrotation Xrotation
				JOINT Neck
				{
					OFFSET 0 0 0
					CHANNELS 3 Zrotation Yrotation Xrotation
					JOINT Neck1
					{
						OFFSET -0.05182 1.80489 0.16014
						CHANNELS 3 Zrotation Yrotation Xrotation
						JOINT Head
						{
							OFFSET 0.14739 1.78840 -0.33342
							CHANNELS 3 Zrotation Yrotation Xrotation
							End Site
							{
								OFFSET 0.04364 1.83899 -0.13460
							}
						}
					}
				}
				JOINT LeftShoulder
				{
					OFFSET 0 0 0
					CHANNELS 3 Zrotation Yrotation Xrotation
					JOINT LeftArm
					{
						OFFSET 3.01264 1.29090 -0.06579
						CHANNELS 3 Zrotation Yrotation Xrotation
						JOINT LeftForeArm
						{
							OFFSET 5.55680 -0.00000 0.00000
							CHANNELS 3 Zrotation Yrotation Xrotation
							JOINT LeftHand
							{
								OFFSET 3.63979 -0.00000 -0.00000
								CHANNELS 3 Zrotation Yrotation Xrotation
								JOINT LeftFingerBase
								{
									OFFSET 0 0 0
									CHANNELS 3 Zrotation Yrotation Xrotation
									JOINT LeftHandIndex1
									{
										OFFSET 0.56942 -0.00000 -0.00000
										CHANNELS 3 Zrotation Yrotation Xrotation
										End Site
										{
											OFFSET 0.45908 -0.00000 -0.00000
										}
									}
								}
								JOINT LThumb
								{
									OFFSET 0 0 0
									CHANNELS 3 Zrotation Yrotation Xrotation
									End Site
									{
										OFFSET 0.46609 -0.00000 0.46609
									}
								}
							}
						}
					}
				}
				JOINT RightShoulder
				{
					OFFSET 0 0 0
					CHANNELS 3 Zrotation Yrotation Xrotation
					JOINT RightArm
					{
						OFFSET -3.15796 1.37283 -0.36748
						CHANNELS 3 Zrotation Yrotation Xrotation
						JOINT RightForeArm
						{
							OFFSET -5.34339 -0.00000 0.00000
							CHANNELS 3 Zrotation Yrotation Xrotation
							JOINT RightHand
							{
								OFFSET -3.65101 -0.00000 -0.00000
								CHANNELS 3 Zrotation Yrotation Xrotation
								JOINT RightFingerBase
								{
									OFFSET 0 0 0
									CHANNELS 3 Zrotation Yrotation Xrotation
									JOINT RightHandIndex1
									{
										OFFSET -0.69425 -0.00000 -0.00000
										CHANNELS 3 Zrotation Yrotation Xrotation
										End Site
										{
											OFFSET -0.55972 -0.00000 -0.00000
										}
									}
								}
								JOINT RThumb
								{
									OFFSET 0 0 0
									CHANNELS 3 Zrotation Yrotation Xrotation
									End Site
									{
										OFFSET -0.56827 -0.00000 0.56827
									}
								}
							}
						}
					}
				}
			}
		}
	}
}
MOTION
Frames: 13
Frame Time: .0083333
7.4493 18.1818 -9.0165 -3.3663 -8.0833 0.1783 0.0000 0.0000 0.0000 -9.5949 -8.0231 -25.0648 2.3759 9.6086 27.7183 0.1991 5.9361 -12.6439 0.8528 -5.8894 -16.4638 0.0000 0.0000 0.0000 29.3335 4.7915 4.6467 -0.9896 -6.3314 17.7489 -0.7033 0.5385 -15.6723 -1.3083 -7.2455 20.4447 0.1826 -0.9239 0.3227 -0.3628 -1.2368 -1.6660 -0.4494 -0.6241 -1.8989 -2.0922 -2.5535 -13.0496 0.8893 -3.1966 13.0642 0.3333 -1.5852 6.1551 0.0000 -0.0000 0.0000 -72.9018 8.3628 5.8528 10.8107 -17.9975 -1.7170 -0.0000 -0.0000 8.5441 19.2466 15.5407 5.3442 -7.1250 0.0000 -0.0000 -7.9461 46.2380 -0.2443 0.0000 -0.0000 0.0000 8.5279 40.2594 -53.1964 -107.2650 58.8432 -74.8939 0.0000 0.0000 5.4028 -51.1751 42.3856 -39.9525 7.1250 -0.0000 -0.0000 -6.4574 25.2548 -8.6331
7.4340 18.1793 -8.8856 -3.1873 -8.3391 0.1239 0.0000 0.0000 0.0000 -9.3732 -9.0628 -24.4912 2.1433 9.1583 26.2918 0.1456 6.5135 -12.3253 0.8085 -5.7384 -16.0272 0.0000 0.0000 0.0000 29.1330 3.7068 5.3661 -0.9090 -6.0754 17.0032 -0.6737 0.2697 -15.4215 -0.9159 -6.0977 17.0682 -0.2186 -0.8841 0.3738 -0.3740 -1.1898 -1.7348 -0.2356 -0.5945 -1.9899 -2.0996 -2.6708 -12.5927 0.6687 -3.3263 12.5715 0.2623 -1.6675 5.9198 0.0000 -0.0000 0.0000 -72.8107 8.6362 4.0747 10.2705 -17.1616 -1.5538 -0.0000 -0.0000 9.5992 20.0490 13.5556 4.8891 -7.1250 0.0000 -0.0000 -6.7676 44.2690 0.1227 0.0000 -0.0000 0.0000 8.7062 42.1583 -52.5617 -107.1135 58.8639 -74.7642 0.0000 0.0000 6.0765 -50.1018 41.3980 -38.3419 7.1250 -0.0000 -0.0000 -6.3811 23.7112 -8.4460
7.4201 18.1761 -8.7602 -3.2401 -8.7426 0.2456 0.0000 0.0000 0.0000 -8.9289 -9.8719 -24.2204 1.9676 8.7982 25.1660 0.0817 7.1164 -11.8538 1.0703 -6.5766 -18.4668 0.0000 0.0000 0.0000 29.1524 2.9924 6.0594 -0.8085 -5.7382 16.0268 -0.6363 0.0070 -15.0728 -0.2696 -3.3402 9.2274 -0.3965 -1.0086 0.2204 -0.4138 -1.3577 -1.6859 -0.1769 -0.6761 -1.8508 -1.6883 -2.5122 -12.8985 0.4902 -3.1566 12.6146 0.1501 -1.5781 5.9729 -0.0000 0.0000 0.0000 -72.6657 8.8442 1.1047 9.8131 -16.4467 -1.4216 -0.0000 -0.0000 11.6412 20.4916 12.8963 4.7679 -7.1250 0.0000 -0.0000 -6.2376 43.6276 0.2121 -0.0000 0.0000 0.0000 9.0693 44.8575 -51.8662 -106.8845 58.8949 -74.5682 0.0000 0.0000 6.7879 -49.2890 40.8266 -37.2270 7.1250 -0.0000 -0.0000 -6.2350 22.7151 -8.1946
7.3990 18.1860 -8.6342 -3.4505 -9.2956 0.4129 0.0000 0.0000 0.0000 -8.2646 -10.5424 -24.0191 1.8386 8.5215 24.3096 0.0372 7.6184 -11.6326 1.2214 -7.0099 -19.7446 0.0000 0.0000 0.0000 29.3398 2.6751 6.8702 -0.7003 -5.3492 14.9072 -0.5861 0.0343 -14.4554 -0.5241 -4.6396 12.8834 -0.3918 -1.2895 -0.0543 -0.5126 -1.7288 -1.3201 -0.2861 -0.8631 -1.3250 -1.0336 -2.0699 -14.2260 0.4726 -2.6675 12.9492 0.0658 -1.3052 6.2891 0.0000 0.0000 0.0000 -72.2619 8.7108 -1.9050 9.4217 -15.8299 -1.3128 -0.0000 -0.0000 12.6383 19.9804 13.8597 4.9776 -7.1250 0.0000 -0.0000 -6.8925 44.5791 0.0720 0.0000 0.0000 0.0000 9.2211 48.5048 -51.8792 -106.5657 58.9373 -74.2951 0.0000 0.0000 7.4990 -47.5900 40.2992 -35.3010 7.1250 -0.0000 -0.0000 -5.6417 21.3195 -7.3337
7.3792 18.1979 -8.5168 -3.6019 -9.7873 0.4481 0.0000 0.0000 0.0000 -7.6175 -11.4824 -23.7135 1.7331 8.2864 23.5875 -0.0066 8.2188 -11.5831 1.2229 -7.0140 -19.7568 0.0000 0.0000 0.0000 29.4906 2.4776 7.7870 -0.6095 -4.9970 13.9001 -0.5419 -0.0354 -13.9225 -0.2756 -3.3768 9.3297 -0.4563 -0.6435 -0.2113 -0.2219 -0.8649 -1.5668 0.0379 -0.4283 -1.4820 -2.9230 -2.7619 -12.3845 1.2096 -3.3773 12.1545 0.5670 -1.6898 5.7781 0.0000 0.0000 0.0000 -72.4752 8.5989 -3.3173 8.6639 -14.6231 -1.1137 -0.0000 -0.0000 15.8768 19.8596 13.5008 4.8201 -7.1250 0.0000 -0.0000 -6.9287 44.1898 0.1392 0.0000 0.0000 0.0000 9.3232 49.0360 -50.7768 -105.6889 59.0492 -73.5436 0.0000 0.0000 8.1128 -45.9323 39.0286 -33.0457 7.1250 -0.0000 -0.0000 -5.3189 19.2116 -6.7961
7.3653 18.2080 -8.3960 -3.6750 -10.2468 0.4233 0.0000 0.0000 0.0000 -7.0505 -12.7155 -23.2790 1.6499 8.0952 23.0035 -0.0382 8.7538 -11.7302 0.9460 -6.1946 -17.3500 0.0000 0.0000 0.0000 29.4898 2.1680 8.6528 -0.5368 -4.6943 13.0388 -0.5065 -0.0274 -13.4577 -0.1627 -2.5991 7.1645 -0.6190 -0.6934 -0.1960 -0.2809 -0.9331 -1.5170 0.0691 -0.4609 -1.4378 -2.6636 -2.6308 -12.0879 1.2229 -3.2547 11.8213 0.5457 -1.6182 5.6164 0.0000 0.0000 0.0000 -72.1017 8.4278 -7.3307 7.7961 -13.2218 -0.9049 -0.0000 -0.0000 20.4013 19.7087 12.6000 4.4682 -7.1250 0.0000 -0.0000 -6.8870 43.2310 0.3022 0.0000 0.0000 0.0000 10.1857 52.1743 -49.7691 -104.1927 59.2250 -72.2593 0.0000 0.0000 9.2266 -44.3100 37.6604 -30.8134 7.1250 -0.0000 -0.0000 -4.9993 17.0311 -6.2639
7.3504 18.2181 -8.2753 -3.6844 -10.6728 0.4781 0.0000 0.0000 0.0000 -6.6950 -13.5285 -22.9787 1.5866 7.9459 22.5498 -0.0601 8.9741 -11.6178 0.6213 -5.0442 -14.0348 0.0000 0.0000 0.0000 29.3884 1.8803 9.3813 -0.4761 -4.4252 12.2762 -0.4693 0.0774 -12.9162 -0.0865 -1.8971 5.2215 -0.6795 -0.5589 0.0261 -0.4113 -0.7607 -1.8049 -0.0281 -0.3735 -1.8598 -2.6194 -2.6871 -11.8494 1.2763 -3.3578 12.1509 0.5476 -1.6645 5.6819 -0.0000 -0.0000 0.0000 -71.3443 8.5337 -10.0231 7.1125 -12.1043 -0.7551 -0.0000 -0.0000 23.6369 18.3167 13.0849 4.2861 -7.1250 0.0000 -0.0000 -8.2368 43.5838 0.2900 -0.0000 -0.0000 0.0000 11.2721 54.4738 -48.1033 -101.6096 59.4845 -70.0368 0.0000 0.0000 9.7927 -41.8656 36.6747 -28.1580 7.1250 -0.0000 -0.0000 -4.0938 14.9197 -5.0207
7.3344 18.2214 -8.1574 -3.5738 -11.0449 0.6795 0.0000 0.0000 0.0000 -6.7549 -13.5145 -23.0217 1.5379 7.8288 22.1952 -0.0995 8.9033 -10.6274 0.5117 -4.5853 -12.7295 0.0000 0.0000 0.0000 29.1609 1.7696 9.9273 -0.4256 -4.1870 11.6032 -0.4401 0.3354 -12.4207 -0.0097 -0.6368 1.7499 -0.9702 -0.3945 -0.0570 -0.5265 -0.5471 -1.9572 0.0132 -0.2625 -1.9690 -2.7671 -2.9123 -11.9222 1.4049 -3.6554 12.3250 0.5844 -1.8065 5.7601 0.0000 0.0000 0.0000 -70.7555 8.1857 -14.2084 6.5480 -11.1729 -0.6412 -0.0000 -0.0000 27.7906 14.4809 16.6899 4.2419 -7.1250 0.0000 -0.0000 -12.6724 46.7829 -0.5664 0.0000 0.0000 0.0000 11.5796 56.7107 -47.0327 -97.1123 59.8080 -66.1555 0.0000 0.0000 10.2285 -39.6546 35.7740 -25.8527 7.1250 -0.0000 -0.0000 -3.2350 13.0626 -3.8879
7.3217 18.2248 -8.0241 -3.5640 -11.4243 0.8397 0.0000 0.0000 0.0000 -6.8086 -13.4584 -23.0139 1.5087 7.7574 21.9796 -0.1378 8.7599 -9.3765 0.4772 -4.4304 -12.2907 0.0000 0.0000 0.0000 28.9404 1.5278 10.4527 -0.3870 -3.9946 11.0616 -0.4224 0.8860 -11.9999 -0.0128 -0.7292 2.0039 -1.2570 -0.2820 -0.5775 -0.5141 -0.3887 -1.7925 0.1807 -0.1814 -1.5070 -3.2623 -3.2235 -11.7487 1.7441 -4.0344 11.7765 0.7446 -1.9890 5.5841 -0.0000 0.0000 0.0000 -70.5542 7.1430 -22.7295 5.8316 -9.9811 -0.5097 -0.0000 -0.0000 36.2902 16.7332 29.0194 8.2978 -7.1250 0.0000 -0.0000 -16.1396 59.3305 -5.7419 -0.0000 0.0000 0.0000 10.6443 59.2927 -46.9562 -90.6122 59.9986 -60.5302 0.0000 0.0000 10.6164 -37.8612 34.8977 -23.9774 7.1250 -0.0000 -0.0000 -2.5488 11.4457 -3.0065
7.3123 18.2306 -7.8868 -3.4695 -11.7620 0.8168 0.0000 0.0000 0.0000 -6.9854 -13.4860 -22.8864 1.4993 7.7344 21.9102 -0.1591 8.4933 -8.1510 0.3852 -3.9855 -11.0360 0.0000 0.0000 0.0000 28.5547 1.0336 11.0196 -0.3598 -3.8536 10.6650 -0.4090 1.5049 -11.6512 -0.0176 -0.8574 2.3567 -1.5555 -0.2666 -0.9785 -0.5989 -0.3596 -1.6558 0.2585 -0.1663 -1.1412 -3.2611 -3.1831 -11.4840 1.9824 -4.0204 11.6362 0.8252 -1.9668 5.5001 0.0000 -0.0000 0.0000 -70.1464 6.2332 -32.4184 5.2739 -9.0459 -0.4175 -0.0000 -0.0000 45.6720 17.6707 18.8141 5.8660 -7.1250 0.0000 -0.0000 -10.3545 49.3738 -1.1276 0.0000 -0.0000 0.0000 9.1741 61.7549 -47.0566 -82.2664 59.7728 -53.3076 0.0000 0.0000 10.7101 -35.6138 33.5305 -21.5871 7.1250 -0.0000 -0.0000 -1.7117 9.1885 -1.9639
7.3038 18.2344 -7.7600 -3.6434 -12.0430 0.9437 0.0000 0.0000 0.0000 -6.8806 -13.3630 -23.0125 1.5135 7.7692 22.0153 -0.1737 8.2305 -6.9266 0.1565 -2.5488 -7.0250 0.0000 0.0000 0.0000 28.5677 0.9013 11.5959 -0.3308 -3.6965 10.2245 -0.3872 1.8337 -11.2602 -0.0238 -0.9958 2.7372 -1.5160 -0.2007 -1.1122 -0.6558 -0.2716 -1.7773 0.1778 -0.1225 -1.1927 -2.8331 -2.8658 -11.6159 2.0470 -3.6859 12.4142 0.7981 -1.7788 5.7505 0.0000 -0.0000 0.0000 -69.5319 5.7727 -34.3317 4.9563 -8.5107 -0.3690 -0.0000 -0.0000 47.1814 15.5885 19.3484 5.2810 -7.1250 0.0000 -0.0000 -12.5242 49.5938 -1.4387 0.0000 -0.0000 0.0000 7.3667 63.7103 -47.2514 -72.4693 58.8063 -44.8788 0.0000 0.0000 10.5362 -32.8947 31.8729 -18.8567 7.1250 -0.0000 -0.0000 -0.6187 6.5388 -0.6852
7.2995 18.2430 -7.6356 -4.2167 -12.3178 1.3644 0.0000 0.0000 0.0000 -6.3911 -13.0969 -23.4331 1.5546 7.8692 22.3176 -0.1914 8.1708 -5.8176 0.0169 -0.8394 -2.3070 0.0000 0.0000 0.0000 29.0408 1.1654 12.0166 -0.2993 -3.5178 9.7238 -0.3551 2.1596 -10.7148 -0.0854 -1.8852 5.1886 -1.0672 0.0574 -1.4988 -0.5148 0.0771 -1.8927 0.0714 0.0471 -1.0985 -2.9110 -3.1120 -11.5367 1.9298 -3.9934 12.5376 0.7478 -1.9414 5.7828 -0.0000 -0.0000 0.0000 -69.0708 4.9031 -35.7552 4.6169 -7.9368 -0.3205 -0.0000 -0.0000 48.6702 15.2316 19.2856 5.1388 -7.1250 0.0000 -0.0000 -12.8411 49.4767 -1.4387 -0.0000 -0.0000 0.0000 3.8347 65.1523 -48.8902 -61.9287 56.8024 -35.9505 0.0000 0.0000 10.2025 -29.9115 30.5854 -16.3159 7.1250 -0.0000 -0.0000 0.7828 4.3068 0.8394
7.2969 18.2560 -7.5189 -4.7367 -12.6797 1.7562 0.0000 0.0000 0.0000 -5.9553 -12.8813 -23.8103 1.6186 8.0219 22.7805 -0.2057 8.4080 -5.8034 0.0044 0.4269 1.1731 0.0000 0.0000 0.0000 29.4529 1.5046 12.3956 -0.2760 -3.3793 9.3367 -0.3215 2.3766 -10.1515 -0.2370 -3.1330 8.6493 -0.8001 0.3233 -1.8857 -0.3314 0.4348 -1.9555 0.1135 0.2236 -0.9487 -2.9325 -3.2324 -12.1135 1.8808 -4.1447 13.3662 0.7082 -2.0147 6.1459 0.0000 0.0000 0.0000 -68.7275 3.7211 -37.2619 4.2794 -7.3645 -0.2755 -0.0000 -0.0000 50.1899 16.3150 18.8781 5.4101 -7.1250 0.0000 -0.0000 -11.6687 49.2328 -1.2331 0.0000 0.0000 0.0000 -1.4574 66.5101 -52.5940 -51.5214 53.5910 -27.3939 0.0000 0.0000 11.5392 -25.3519 29.9962 -13.3264 7.1250 -0.0000 -0.0000 3.2782 2.5423 3.4260
